# xmcd
#
# Track frame offsets: 
#        150
#        12305
#        25128
#        36120
#        47828
#        58468
#        71031
#        82186
#        94341
#        105856
#        117738
#        129513
#        140416
#        152526
#        165451
#        176916
#        188118
#        199148
#        213648
#        218783
#
# Disc length: 3087 seconds
#
# Revision: 0
# Processed by: cddbd v1.5.2PL0 Copyright (c) Steve Scherf et al.
# Submitted via: ExactAudioCopy v0.99pb5
#
DISCID=2b0c0d14
DTITLE=Jim Reeves - The Primo Collection [CD2]
DYEAR=2008
DGENRE=Country
TTITLE0=Mexican Joe
TTITLE1=Bimbo
TTITLE2=Then I'll Stop Loving You
TTITLE3=Give Me One More Kiss
TTITLE4=Hillbilly Waltz
TTITLE5=Drinking Tequila
TTITLE6=Red Eyed And Rowdy
TTITLE7=Padre Of Old San Antone
TTITLE8=Penny Candy
TTITLE9=I'll Follow You
TTITLE10=Are You The One
TTITLE11=Let Me Remember (Things I Can't Forget)
TTITLE12=How Many
TTITLE13=Butterfly Love
TTITLE14=It's Hard To Love Just One
TTITLE15=Gypsy Heart
TTITLE16=My Rambling Heart
TTITLE17=You're The Sweetest Thing
TTITLE18=I'll Always love You
TTITLE19=Echo Bonita
EXTD=
EXTT0=
EXTT1=
EXTT2=
EXTT3=
EXTT4=
EXTT5=
EXTT6=
EXTT7=
EXTT8=
EXTT9=
EXTT10=
EXTT11=
EXTT12=
EXTT13=
EXTT14=
EXTT15=
EXTT16=
EXTT17=
EXTT18=
EXTT19=
PLAYORDER=
